Patient4_TMGait_0pt8_01_left_14_GRF.mot
version=1
nRows=32
nColumns=19
inDegrees=no
endheader
time	F1x	F1y	F1z	M1x	M1y	M1z	F2x	F2y	F2z	M2x	M2y	M2z	EC1x	EC1y	EC1z	EC2x	EC2y	EC2z
14.91	3.8436	6.8233	-2.2694	-0.80372	-0.0199	7.9787	-58.8059	674.6727	-55.8697	258.3107	89.8694	804.345	-0.0592	0.0182	-0.0073	-0.0462	0.0165	0.9585
14.921	2.4199	5.5975	-1.5045	-0.88008	-0.16008	6.6159	-54.3351	674.7006	-56.9311	258.1244	88.6842	801.2274	-0.0592	0.0182	-0.0073	-0.0462	0.0165	0.9585
14.932	1.2307	4.6011	-0.83065	-0.96113	-0.28988	5.5109	-49.9117	675.5571	-57.7018	258.3226	87.1088	798.0022	-0.0592	0.0182	-0.0073	-0.0462	0.0165	0.9585
14.943	0.33325	3.896	-0.30637	-1.04	-0.39419	4.7289	-45.6356	677.6647	-58.1	259.0852	85.1537	795.1978	-0.0592	0.0182	-0.0073	-0.0462	0.0165	0.9585
14.954	-0.28714	3.4682	0.072844	-1.1115	-0.48329	4.2599	-41.4123	681.3679	-58.1356	260.5625	82.8355	793.2675	-0.0592	0.0182	-0.0073	-0.0462	0.0165	0.9585
14.965	-0.69016	3.2655	0.32367	-1.1724	-0.56139	4.0486	-37.035	686.9131	-57.8452	262.8632	80.1448	792.5419	-0.0592	0.0182	-0.0073	-0.0462	0.0165	0.9585
14.976	-0.94569	3.2015	0.48428	-1.2163	-0.64682	3.9844	-32.2483	694.3874	-57.3216	266.0268	77.0901	793.1749	-0.0592	0.0182	-0.0073	-0.0462	0.0165	0.9585
14.987	-1.1225	3.1909	0.58256	-1.2359	-0.74616	3.9707	-26.821	703.7433	-56.6234	270.0331	73.6468	795.1853	-0.0592	0.0182	-0.0073	-0.0462	0.0165	0.9585
14.998	-1.2676	3.1388	0.6477	-1.2155	-0.87163	3.8864	-20.6183	714.8584	-55.8715	274.8204	69.8759	798.5069	-0.0592	0.0182	-0.0073	-0.0462	0.0165	0.9585
15.009	-1.434	2.9608	0.70353	-1.1363	-1.0346	3.6249	-13.6794	727.5991	-55.1553	280.3053	65.8695	803.1099	-0.0592	0.0182	-0.0073	-0.0462	0.0165	0.9585
15.02	-1.6241	2.5585	0.76569	-0.97184	-1.2304	3.0508	-6.2074	741.6928	-54.6058	286.3361	61.8266	808.8721	-0.0592	0.0182	-0.0073	-0.0462	0.0165	0.9585
15.031	-1.8573	1.8311	0.84848	-0.69105	-1.461	2.0713	1.4027	756.641	-54.3394	292.6592	58.003	815.4996	-0.0592	0.0182	-0.0073	-0.0462	0.0165	0.9585
15.042	-2.0986	0.69947	0.94798	-0.26545	-1.7028	0.60552	8.6909	771.5381	-54.4538	298.8661	54.6661	822.2835	-0.0592	0.0182	-0.0073	-0.0462	0.0165	0.9585
15.053	-2.2995	-0.88208	1.0447	0.32419	-1.9144	-1.3866	15.186	785.1713	-55.0276	304.4268	52.071	828.2109	-0.0592	0.0182	-0.0073	-0.0462	0.0165	0.9585
15.064	-2.3551	-2.8966	1.1045	1.0702	-2.0201	-3.8902	20.564	796.1591	-56.0399	308.768	50.3318	832.0336	-0.0592	0.0182	-0.0073	-0.0462	0.0165	0.9585
15.075	-2.1117	-5.1922	1.0633	1.9165	-1.8875	-6.7293	24.6231	803.2325	-57.4543	311.38	49.495	832.5921	-0.0592	0.0182	-0.0073	-0.0462	0.0165	0.9585
15.086	-1.3698	-7.4298	0.85375	2.7361	-1.3505	-9.5081	27.3795	805.4435	-59.1418	311.9113	49.4427	828.9682	-0.0592	0.0182	-0.0073	-0.0462	0.0165	0.9585
15.097	0.12839	-8.9829	0.37601	3.2941	-0.19014	-11.4514	28.9363	802.3195	-60.9553	310.2176	50.0006	820.6892	-0.0592	0.0182	-0.0073	-0.0462	0.0165	0.9585
15.108	2.6457	-8.8797	-0.46723	3.2268	1.8153	-11.3276	29.5516	793.8498	-62.7212	306.3526	50.921	807.681	-0.0592	0.0182	-0.0073	-0.0462	0.0165	0.9585
15.119	6.4211	-5.7059	-1.7838	2.0127	4.8835	-7.3686	29.5273	780.4498	-64.2708	300.543	51.9337	790.2731	-0.0592	0.0182	-0.0073	-0.0462	0.0165	0.9585
15.13	11.5437	2.3317	-3.6446	-1.0072	9.1332	2.6907	29.2518	762.8497	-65.4764	293.1403	52.7734	769.0683	-0.0592	0.0182	-0.0073	-0.0462	0.0165	0.9585
15.141	17.8327	17.3106	-6.0347	-6.5902	14.4715	21.4531	29.0785	741.942	-66.2097	284.5501	53.1795	744.8499	-0.0592	0.0182	-0.0073	-0.0462	0.0165	0.9585
15.152	24.6224	41.2733	-8.7942	-15.4729	20.4443	51.5005	29.3098	718.5567	-66.3791	275.1394	52.949	718.3472	-0.0592	0.0182	-0.0073	-0.0462	0.0165	0.9585
15.163	30.5756	75.6805	-11.5147	-28.1631	26.0346	94.6778	30.1411	693.2995	-65.8622	265.1723	51.8864	690.0975	-0.0592	0.0182	-0.0073	-0.0462	0.0165	0.9585
15.174	33.5256	120.6724	-13.4642	-44.6698	29.5339	151.2077	31.6301	666.4462	-64.5552	254.7671	49.868	660.3612	-0.0592	0.0182	-0.0073	-0.0462	0.0165	0.9585
15.185	31.38	175.004	-13.7139	-64.4728	29.0571	219.6215	33.671	637.9315	-62.3628	243.8954	46.8427	629.1181	-0.0592	0.0182	-0.0073	-0.0462	0.0165	0.9585
15.196	23.6486	236.5296	-11.5093	-86.6978	23.4683	297.2677	36.0346	607.4397	-59.2181	232.416	42.8438	596.1565	-0.0592	0.0182	-0.0073	-0.0462	0.0165	0.9585
15.207	11.9533	301.9467	-6.2077	-110.044	12.5518	379.8871	38.4226	574.4593	-55.1567	220.1014	38.0249	561.0761	-0.0592	0.0182	-0.0073	-0.0462	0.0165	0.9585
15.218	-1.6239	366.4021	2.3691	-132.7476	-3.1	461.0172	40.5212	538.3863	-50.31	206.6763	32.6271	523.3807	-0.0592	0.0182	-0.0073	-0.0462	0.0165	0.9585
15.229	-15.1375	425.9186	13.3121	-153.4527	-21.5716	535.2633	42.0448	498.6706	-44.8999	191.8844	26.9618	482.6062	-0.0592	0.0182	-0.0073	-0.0462	0.0165	0.9585
15.24	-27.2306	479.1649	24.8398	-171.8034	-40.1515	600.6972	42.6947	455.1542	-39.1557	175.6123	21.3433	438.6583	-0.0592	0.0182	-0.0073	-0.0462	0.0165	0.9585
15.251	-37.3045	526.6664	35.49	-188.1075	-56.7609	657.9055	42.2353	408.1211	-33.3369	157.9247	16.0873	391.8345	-0.0592	0.0182	-0.0073	-0.0462	0.0165	0.9585
